<svg width="256" height="256" viewBox="0 0 256 256" fill="none" xmlns="http://www.w3.org/2000/svg">
<rect width="256" height="256" fill="#0B2832"/>
<path d="M201.999 227.449H55V80.4497H91.7498V190.699H201.999V227.449Z" fill="#19D6BA"/>
<path d="M55.0007 29H202V175.999H165.25V65.7498H55.0007V29Z" fill="#19D6BA"/>
<path d="M128.174 105.511H116.5V116.639H106.128V125.248H116.5V145.908C116.5 148.903 116.892 151.479 117.676 153.634C118.46 155.762 119.58 157.512 121.036 158.883C122.463 160.283 124.185 161.319 126.201 161.991C128.244 162.635 130.512 162.957 133.003 162.957C134.291 162.957 135.593 162.887 136.909 162.747C138.252 162.635 139.54 162.467 140.772 162.243C142.004 162.019 143.165 161.739 144.257 161.403C145.349 161.039 146.301 160.619 147.113 160.143L145.979 152.123C145.447 152.263 144.803 152.403 144.047 152.543C143.319 152.683 142.536 152.809 141.696 152.921C140.828 153.061 139.918 153.173 138.966 153.257C138.042 153.341 137.133 153.383 136.237 153.383C135.005 153.383 133.885 153.243 132.877 152.963C131.898 152.683 131.058 152.207 130.358 151.535C129.658 150.891 129.112 150.023 128.72 148.931C128.356 147.812 128.174 146.426 128.174 144.774V125.248H145.139V116.639H128.174V105.511Z" fill="#19D6BA"/>
</svg>
