<svg width="47" height="64" viewBox="0 0 47 64" fill="none" xmlns="http://www.w3.org/2000/svg">
<path d="M47.0002 63.4503H0V16.4501H11.7501V51.7003H47.0002V63.4503Z" fill="#19D6BA"/>
<path d="M0.000242233 0H47.0005V47.0002H35.2504V11.7501H0.000242233V0Z" fill="#19D6BA"/>
<path d="M23.4193 23.6221H19.5077V27.3508H16.0323V30.2352H19.5077V37.1579C19.5077 38.1616 19.6391 39.0246 19.9017 39.7469C20.1644 40.4598 20.5396 41.0461 21.0274 41.5057C21.5058 41.9747 22.0826 42.3218 22.758 42.5469C23.4428 42.7627 24.2026 42.8706 25.0374 42.8706C25.4689 42.8706 25.9051 42.8471 26.346 42.8002C26.7963 42.7627 27.2278 42.7064 27.6405 42.6314C28.0532 42.5563 28.4425 42.4625 28.8083 42.3499C29.1742 42.228 29.4931 42.0873 29.7651 41.9278L29.3852 39.2404C29.207 39.2873 28.9913 39.3342 28.738 39.3811C28.4941 39.428 28.2315 39.4702 27.95 39.5077C27.6593 39.5546 27.3544 39.5921 27.0355 39.6203C26.7259 39.6484 26.421 39.6625 26.1209 39.6625C25.7081 39.6625 25.3329 39.6156 24.9952 39.5218C24.6669 39.428 24.3855 39.2685 24.151 39.0434C23.9165 38.8276 23.7336 38.5368 23.6023 38.171C23.4803 37.7958 23.4193 37.3315 23.4193 36.778V30.2352H29.1038V27.3508H23.4193V23.6221Z" fill="#19D6BA"/>
</svg>
